HIERARCHY
ROOT Root
{
  OFFSET 0.0 0.0 0.0
  CHANNELS 6 Xposition Yposition Zposition Zrotation Yrotation Xrotation
  JOINT Hips
  {
    OFFSET 0.0 100.0 0.0
    CHANNELS 6 Xposition Yposition Zposition Zrotation Yrotation Xrotation
    JOINT Spine1
    {
      OFFSET 5.003913 -0.037094 -0.013727
      CHANNELS 3 Zrotation Yrotation Xrotation
      JOINT Spine2
      {
        OFFSET 7.125363 -1e-06 0.0
        CHANNELS 3 Zrotation Yrotation Xrotation
        JOINT Chest
        {
          OFFSET 7.594027 1e-06 0.0
          CHANNELS 3 Zrotation Yrotation Xrotation
          JOINT Neck1
          {
            OFFSET 26.313086 -0.460272 -0.181672
            CHANNELS 3 Zrotation Yrotation Xrotation
            JOINT Neck2
            {
              OFFSET 8.045911 0.0 0.0
              CHANNELS 3 Zrotation Yrotation Xrotation
              JOINT Head
              {
                OFFSET 6.432774 0.0 0.0
                CHANNELS 3 Zrotation Yrotation Xrotation
                JOINT HeadEnd
                {
                  OFFSET 16.169773 0.06451 0.00362
                  CHANNELS 3 Zrotation Yrotation Xrotation
                }
                JOINT Jaw
                {
                  OFFSET 0.108741 3.12938 0.002639
                  CHANNELS 3 Zrotation Yrotation Xrotation
                }
                JOINT LeftEye
                {
                  OFFSET 4.45173 8.166359 3.206392
                  CHANNELS 3 Zrotation Yrotation Xrotation
                }
                JOINT RightEye
                {
                  OFFSET 4.436895 8.135758 -3.222429
                  CHANNELS 3 Zrotation Yrotation Xrotation
                }
              }
            }
          }
          JOINT LeftShoulder
          {
            OFFSET 23.218927 5.195579 1.621656
            CHANNELS 3 Zrotation Yrotation Xrotation
            JOINT LeftArm
            {
              OFFSET 15.902118 2e-06 -2e-06
              CHANNELS 3 Zrotation Yrotation Xrotation
              JOINT LeftForeArm
              {
                OFFSET 28.739307 0.0 -1e-06
                CHANNELS 3 Zrotation Yrotation Xrotation
                JOINT LeftHand
                {
                  OFFSET 27.093981 -4e-06 0.0
                  CHANNELS 3 Zrotation Yrotation Xrotation
                  JOINT LeftHandThumb1
                  {
                    OFFSET 2.276781 3.380274 0.83384
                    CHANNELS 3 Zrotation Yrotation Xrotation
                    JOINT LeftHandThumb2
                    {
                      OFFSET 4.705309 -1e-06 -1e-06
                      CHANNELS 3 Zrotation Yrotation Xrotation
                      JOINT LeftHandThumb3
                      {
                        OFFSET 2.798515 0.0 3e-06
                        CHANNELS 3 Zrotation Yrotation Xrotation
                        JOINT LeftHandThumbEnd
                        {
                          OFFSET 3.180793 4e-06 -4e-06
                          CHANNELS 3 Zrotation Yrotation Xrotation
                        }
                      }
                    }
                  }
                  JOINT LeftHandIndex1
                  {
                    OFFSET 3.247786 2.352677 0.137192
                    CHANNELS 3 Zrotation Yrotation Xrotation
                    JOINT LeftHandIndex2
                    {
                      OFFSET 6.367095 1e-06 0.0
                      CHANNELS 3 Zrotation Yrotation Xrotation
                      JOINT LeftHandIndex3
                      {
                        OFFSET 3.662364 0.0 0.0
                        CHANNELS 3 Zrotation Yrotation Xrotation
                        JOINT LeftHandIndex4
                        {
                          OFFSET 2.329242 4e-06 -4e-06
                          CHANNELS 3 Zrotation Yrotation Xrotation
                          JOINT LeftHandIndexEnd
                          {
                            OFFSET 2.767823 1e-06 0.0
                            CHANNELS 3 Zrotation Yrotation Xrotation
                          }
                        }
                      }
                    }
                  }
                  JOINT LeftHandMiddle1
                  {
                    OFFSET 3.163612 0.945023 -0.406112
                    CHANNELS 3 Zrotation Yrotation Xrotation
                    JOINT LeftHandMiddle2
                    {
                      OFFSET 6.276789 3e-06 0.0
                      CHANNELS 3 Zrotation Yrotation Xrotation
                      JOINT LeftHandMiddle3
                      {
                        OFFSET 4.35652 -1e-06 4e-06
                        CHANNELS 3 Zrotation Yrotation Xrotation
                        JOINT LeftHandMiddle4
                        {
                          OFFSET 2.996877 0.0 8e-06
                          CHANNELS 3 Zrotation Yrotation Xrotation
                          JOINT LeftHandMiddleEnd
                          {
                            OFFSET 2.323256 3e-06 -4e-06
                            CHANNELS 3 Zrotation Yrotation Xrotation
                          }
                        }
                      }
                    }
                  }
                  JOINT LeftHandRing1
                  {
                    OFFSET 2.882606 -0.309162 0.107445
                    CHANNELS 3 Zrotation Yrotation Xrotation
                    JOINT LeftHandRing2
                    {
                      OFFSET 6.033198 0.0 4e-06
                      CHANNELS 3 Zrotation Yrotation Xrotation
                      JOINT LeftHandRing3
                      {
                        OFFSET 4.350578 3e-06 0.0
                        CHANNELS 3 Zrotation Yrotation Xrotation
                        JOINT LeftHandRing4
                        {
                          OFFSET 2.651321 2e-06 -7e-06
                          CHANNELS 3 Zrotation Yrotation Xrotation
                          JOINT LeftHandRingEnd
                          {
                            OFFSET 1.937663 1e-06 -4e-06
                            CHANNELS 3 Zrotation Yrotation Xrotation
                          }
                        }
                      }
                    }
                  }
                  JOINT LeftHandPinky1
                  {
                    OFFSET 2.865315 -1.525436 0.575687
                    CHANNELS 3 Zrotation Yrotation Xrotation
                    JOINT LeftHandPinky2
                    {
                      OFFSET 5.54936 1e-06 -8e-06
                      CHANNELS 3 Zrotation Yrotation Xrotation
                      JOINT LeftHandPinky3
                      {
                        OFFSET 3.070974 0.0 -4e-06
                        CHANNELS 3 Zrotation Yrotation Xrotation
                        JOINT LeftHandPinky4
                        {
                          OFFSET 1.549672 1e-06 0.0
                          CHANNELS 3 Zrotation Yrotation Xrotation
                          JOINT LeftHandPinkyEnd
                          {
                            OFFSET 1.952123 0.0 0.0
                            CHANNELS 3 Zrotation Yrotation Xrotation
                          }
                        }
                      }
                    }
                  }
                }
              }
            }
          }
          JOINT RightShoulder
          {
            OFFSET 23.161716 5.296122 -1.380114
            CHANNELS 3 Zrotation Yrotation Xrotation
            JOINT RightArm
            {
              OFFSET -16.027195 -2e-06 1.1e-05
              CHANNELS 3 Zrotation Yrotation Xrotation
              JOINT RightForeArm
              {
                OFFSET -28.736639 4e-06 2e-06
                CHANNELS 3 Zrotation Yrotation Xrotation
                JOINT RightHand
                {
                  OFFSET -27.133619 6e-06 0.0
                  CHANNELS 3 Zrotation Yrotation Xrotation
                  JOINT RightHandThumb1
                  {
                    OFFSET -2.274328 -3.351035 -0.83067
                    CHANNELS 3 Zrotation Yrotation Xrotation
                    JOINT RightHandThumb2
                    {
                      OFFSET -4.703594 -3e-06 2e-06
                      CHANNELS 3 Zrotation Yrotation Xrotation
                      JOINT RightHandThumb3
                      {
                        OFFSET -2.794935 -4e-06 -3e-06
                        CHANNELS 3 Zrotation Yrotation Xrotation
                        JOINT RightHandThumbEnd
                        {
                          OFFSET -3.183852 4e-06 1e-06
                          CHANNELS 3 Zrotation Yrotation Xrotation
                        }
                      }
                    }
                  }
                  JOINT RightHandIndex1
                  {
                    OFFSET -3.253496 -2.33755 -0.127667
                    CHANNELS 3 Zrotation Yrotation Xrotation
                    JOINT RightHandIndex2
                    {
                      OFFSET -6.344434 0.0 0.0
                      CHANNELS 3 Zrotation Yrotation Xrotation
                      JOINT RightHandIndex3
                      {
                        OFFSET -3.654871 0.0 -8e-06
                        CHANNELS 3 Zrotation Yrotation Xrotation
                        JOINT RightHandIndex4
                        {
                          OFFSET -2.327586 -1e-06 0.0
                          CHANNELS 3 Zrotation Yrotation Xrotation
                          JOINT RightHandIndexEnd
                          {
                            OFFSET -2.770001 3e-06 8e-06
                            CHANNELS 3 Zrotation Yrotation Xrotation
                          }
                        }
                      }
                    }
                  }
                  JOINT RightHandMiddle1
                  {
                    OFFSET -3.168223 -0.944764 0.411762
                    CHANNELS 3 Zrotation Yrotation Xrotation
                    JOINT RightHandMiddle2
                    {
                      OFFSET -6.266691 -1e-06 -4e-06
                      CHANNELS 3 Zrotation Yrotation Xrotation
                      JOINT RightHandMiddle3
                      {
                        OFFSET -4.348901 0.0 0.0
                        CHANNELS 3 Zrotation Yrotation Xrotation
                        JOINT RightHandMiddle4
                        {
                          OFFSET -3.00024 2e-06 -4e-06
                          CHANNELS 3 Zrotation Yrotation Xrotation
                          JOINT RightHandMiddleEnd
                          {
                            OFFSET -2.321477 -4e-06 -4e-06
                            CHANNELS 3 Zrotation Yrotation Xrotation
                          }
                        }
                      }
                    }
                  }
                  JOINT RightHandRing1
                  {
                    OFFSET -2.885654 0.293261 -0.119232
                    CHANNELS 3 Zrotation Yrotation Xrotation
                    JOINT RightHandRing2
                    {
                      OFFSET -6.032835 -1e-06 -4e-06
                      CHANNELS 3 Zrotation Yrotation Xrotation
                      JOINT RightHandRing3
                      {
                        OFFSET -4.33881 0.0 -4e-06
                        CHANNELS 3 Zrotation Yrotation Xrotation
                        JOINT RightHandRing4
                        {
                          OFFSET -2.654903 -4e-06 -4e-06
                          CHANNELS 3 Zrotation Yrotation Xrotation
                          JOINT RightHandRingEnd
                          {
                            OFFSET -1.935122 0.0 4e-06
                            CHANNELS 3 Zrotation Yrotation Xrotation
                          }
                        }
                      }
                    }
                  }
                  JOINT RightHandPinky1
                  {
                    OFFSET -2.866241 1.503904 -0.60527
                    CHANNELS 3 Zrotation Yrotation Xrotation
                    JOINT RightHandPinky2
                    {
                      OFFSET -5.553177 -2e-06 0.0
                      CHANNELS 3 Zrotation Yrotation Xrotation
                      JOINT RightHandPinky3
                      {
                        OFFSET -3.062664 -1e-06 -4e-06
                        CHANNELS 3 Zrotation Yrotation Xrotation
                        JOINT RightHandPinky4
                        {
                          OFFSET -1.546529 2e-06 4e-06
                          CHANNELS 3 Zrotation Yrotation Xrotation
                          JOINT RightHandPinkyEnd
                          {
                            OFFSET -1.952341 0.0 -4e-06
                            CHANNELS 3 Zrotation Yrotation Xrotation
                          }
                        }
                      }
                    }
                  }
                }
              }
            }
          }
        }
      }
    }
    JOINT LeftLeg
    {
      OFFSET -8.443107 2.567604 10.043214
      CHANNELS 3 Zrotation Yrotation Xrotation
      JOINT LeftShin
      {
        OFFSET 43.229198 1e-06 -1e-06
        CHANNELS 3 Zrotation Yrotation Xrotation
        JOINT LeftFoot
        {
          OFFSET 42.298611 1e-06 1e-06
          CHANNELS 3 Zrotation Yrotation Xrotation
          JOINT LeftToeBase
          {
            OFFSET 14.165858 1e-06 0.0
            CHANNELS 3 Zrotation Yrotation Xrotation
            JOINT LeftToeEnd
            {
              OFFSET 6.7141 -0.234461 0.0
              CHANNELS 3 Zrotation Yrotation Xrotation
            }
          }
        }
      }
    }
    JOINT RightLeg
    {
      OFFSET -8.303923 2.592729 -10.047278
      CHANNELS 3 Zrotation Yrotation Xrotation
      JOINT RightShin
      {
        OFFSET -43.369682 0.0 1e-06
        CHANNELS 3 Zrotation Yrotation Xrotation
        JOINT RightFoot
        {
          OFFSET -42.260784 4e-06 2e-06
          CHANNELS 3 Zrotation Yrotation Xrotation
          JOINT RightToeBase
          {
            OFFSET -14.222245 -2e-06 -1e-06
            CHANNELS 3 Zrotation Yrotation Xrotation
            JOINT RightToeEnd
            {
              OFFSET -6.660062 0.232574 -2e-06
              CHANNELS 3 Zrotation Yrotation Xrotation
            }
          }
        }
      }
    }
  }
}
MOTION
Frames: 4
Frame Time: 0.03333333333333333
0.0 0.0 0.0 0.0 -0.0 0.0 -1.123926 48.793331 6.338619 91.123421 -46.210285 90.772331 20.372812 0.326899 0.958043 -4.09705 -0.109136 -0.217552 18.196339 -1.218871 -2.750013 15.011895 -2.703363 2.882265 -2.439291 -0.540095 -5.584159 -22.243965 -3.720201 -6.622535 7e-06 -0.0 0.0 -0.227606 0.004056 -0.015959 0.148448 0.075734 0.041789 0.043835 -0.064184 -0.053441 27.851274 -74.502502 -23.791649 72.69812 -2.751677 -15.40019 15.325372 -0.483414 0.038984 18.997654 60.814941 27.557074 17.636627 -26.322735 52.41119 -19.466663 -14.395596 29.410389 -1e-06 -8.774821 -2e-06 16.585911 -18.050556 5.833477 -0.609776 -1.795657 -3.889327 -4.807088 -11.046811 -2.93785 4e-06 -20.976019 0.0 -5.01997 -25.033556 -4.03188 6e-06 -1e-06 -0.0 -10.634533 -5.68697 -3.565587 10.573274 -17.922951 -3.113901 2e-06 -13.821211 1e-06 -0.501777 -31.181507 -4.027016 -11.747812 -59.805408 7.153915 -13.982712 -7.150198 -2.875041 13.77273 -8.401493 -3.218242 0.347734 -34.211555 0.771655 -0.963028 -17.73337 2.621018 -0.0 -0.0 0.0 -17.346418 -20.095219 -4.20178 21.757559 -1.638374 3.866427 1e-06 -6.338825 0.0 -1.697589 -22.591753 -6.194006 -0.0 -2e-06 -2e-06 -145.521255 -70.92627 -29.637383 69.951675 -7.115627 -32.544437 15.506438 -0.931777 -0.11991 4.519108 70.340714 8.188635 22.182119 -20.375895 49.933315 -16.701813 -16.743528 28.476532 -2e-06 -12.690603 -2e-06 16.747606 -17.951073 2.307595 -0.105919 -1.513856 -4.27588 -5.039041 -5.61287 -2.953556 5e-06 -11.020523 -2e-06 -6.111297 -15.895332 -3.840471 -0.0 -0.0 0.0 -10.283373 -5.680288 -4.341839 11.028296 -11.302406 -2.372632 -1.384269 -14.23858 -6.320121 -0.625438 -26.924191 -3.827601 -4.550395 -49.489819 -3.852106 -13.708524 -7.363476 -3.72094 18.141148 -14.052739 -3.242673 7e-06 -18.787271 -2e-06 -0.429711 -8.456045 2.555504 0.0 1e-06 -0.0 -15.923534 -20.094482 -5.473586 30.41921 -7.190827 1.735927 3e-06 -8.162927 0.0 -1.8619 -22.861471 -6.167942 0.0 -2e-06 -1e-06 128.808701 -1.55099 2.273495 111.259735 0.788695 0.315492 -52.111385 11.824976 -17.389114 -4.008045 1.217209 3.004698 -1.000004 0.0 -0.0 -50.783306 -6.794845 5.642738 112.310303 -1.241579 -0.172111 -57.771858 13.47815 -8.991649 -2.796396 0.364623 2.013819 -1.000004 0.0 0.0 
0.0 0.0 0.0 0.0 -0.0 0.0 -1.061674 48.770157 6.304181 90.894257 -46.262619 91.061165 20.331623 0.453033 0.97331 -4.154236 -0.036309 -0.162688 18.220831 -1.206422 -2.681674 15.154387 -2.801156 2.770956 -2.432354 -0.578171 -5.675255 -22.164648 -3.615781 -6.75003 6e-06 0.0 0.0 -0.226031 -0.040375 -0.008955 0.158828 0.020963 0.051245 0.061318 -0.097125 -0.052151 28.568634 -74.595451 -24.457758 72.96994 -2.627213 -15.59798 15.034824 -0.514376 0.04735 19.983704 60.510601 28.516558 17.636627 -26.322729 52.411194 -19.466663 -14.395596 29.410389 -2e-06 -8.774822 -2e-06 16.584234 -18.091278 5.851037 -0.609776 -1.795653 -3.889327 -4.807088 -11.046807 -2.93785 4e-06 -20.976019 -1e-06 -5.01997 -25.03356 -4.031881 6e-06 -1e-06 -0.0 -10.634535 -5.68697 -3.565588 10.573272 -17.922955 -3.113901 2e-06 -13.821212 0.0 -0.501777 -31.181507 -4.027017 -11.63278 -59.904564 7.123437 -13.982714 -7.150196 -2.875042 13.772729 -8.401495 -3.218242 0.347734 -34.211555 0.771653 -0.963028 -17.733372 2.621019 0.0 0.0 -0.0 -17.346416 -20.095217 -4.201783 21.757557 -1.638372 3.86643 2e-06 -6.338823 -0.0 -1.69759 -22.591747 -6.194008 -1e-06 -3e-06 -2e-06 -145.992279 -70.942337 -29.037971 69.916695 -7.068228 -32.599937 15.407927 -0.86199 -0.120809 4.987926 70.126656 8.661614 22.182114 -20.375896 49.933319 -16.701817 -16.743528 28.476534 -4e-06 -12.690601 -0.0 16.67067 -17.873049 2.378049 -0.105919 -1.513856 -4.275881 -5.03904 -5.612874 -2.953556 4e-06 -11.020525 -2e-06 -6.111298 -15.895334 -3.84047 1e-06 1e-06 0.0 -10.283371 -5.680289 -4.341838 11.028296 -11.302407 -2.372633 -1.384268 -14.238583 -6.320121 -0.625439 -26.924194 -3.8276 -4.555426 -49.594849 -3.716431 -13.708524 -7.363478 -3.720938 18.141151 -14.052739 -3.242676 6e-06 -18.787273 -2e-06 -0.429712 -8.456042 2.555504 0.0 -1e-06 1e-06 -15.923536 -20.094484 -5.473582 30.419214 -7.190824 1.735924 1e-06 -8.162928 0.0 -1.861903 -22.861469 -6.167942 -0.0 -2e-06 -2e-06 128.650269 -1.524367 2.381715 111.371635 0.739729 0.317462 -52.084797 11.846268 -17.102737 -3.951862 1.2363 2.998827 -1.000002 1e-06 -1e-06 -50.825581 -6.774055 5.595251 112.284698 -1.168966 -0.17045 -57.517174 13.236639 -9.047209 -2.832566 0.360364 2.02879 -1.000004 -0.0 0.0 
0.0 0.0 0.0 0.0 -0.0 0.0 -1.015246 48.760433 6.262288 90.769211 -46.222267 91.273216 20.295954 0.543555 0.990191 -4.186666 0.01982 -0.100847 18.295946 -1.195532 -2.655207 15.328065 -2.921354 2.628633 -2.437719 -0.585544 -5.759901 -22.177845 -3.571818 -6.845497 6e-06 -0.0 0.0 -0.220897 -0.081472 0.003686 0.113651 -0.029637 0.05048 0.026674 -0.128575 -0.02916 29.031126 -74.587883 -24.847599 73.164787 -2.535785 -15.490391 14.893074 -0.506983 0.045711 20.193119 60.402866 28.597595 17.636637 -26.322733 52.411213 -19.466665 -14.395598 29.410395 -0.0 -8.774823 -2e-06 16.584045 -18.102766 5.861663 -0.609776 -1.795652 -3.889328 -4.807091 -11.046813 -2.937851 4e-06 -20.976021 -0.0 -5.019972 -25.033564 -4.031882 6e-06 -1e-06 0.0 -10.634537 -5.686971 -3.565588 10.573276 -17.922958 -3.113902 2e-06 -13.821213 1e-06 -0.501778 -31.181511 -4.027017 -11.537406 -59.98967 7.076333 -13.982718 -7.150199 -2.875043 13.772732 -8.401493 -3.218241 0.347733 -34.211555 0.771654 -0.963029 -17.733372 2.62102 -0.0 0.0 -0.0 -17.346424 -20.095221 -4.201782 21.757566 -1.638374 3.866429 1e-06 -6.338825 0.0 -1.69759 -22.591755 -6.194008 -1e-06 -3e-06 -2e-06 -146.11795 -70.941109 -28.765327 69.740089 -7.014453 -32.566864 15.368044 -0.834371 -0.128101 5.366263 70.031448 9.141576 22.182116 -20.3759 49.933331 -16.701815 -16.743528 28.476536 -3e-06 -12.6906 -0.0 16.626865 -17.762514 2.427757 -0.105919 -1.513856 -4.275882 -5.039041 -5.61287 -2.953557 4e-06 -11.020527 -1e-06 -6.111298 -15.89533 -3.840472 1e-06 -0.0 0.0 -10.283372 -5.680289 -4.34184 11.028294 -11.302406 -2.372633 -1.384269 -14.238583 -6.320122 -0.625437 -26.924191 -3.827603 -4.511217 -49.612514 -3.61419 -13.708524 -7.363477 -3.720941 18.141148 -14.052739 -3.242675 6e-06 -18.787271 -2e-06 -0.429713 -8.456044 2.555504 0.0 -1e-06 -0.0 -15.923536 -20.09449 -5.473586 30.419218 -7.190824 1.735926 2e-06 -8.162927 1e-06 -1.861903 -22.861473 -6.167943 0.0 -3e-06 -1e-06 128.614151 -1.456119 2.451222 111.486336 0.699761 0.328259 -52.267216 11.864584 -16.939095 -3.94273 1.242929 2.996711 -1.000001 1e-06 0.0 -50.760616 -6.764654 5.6087 112.316795 -1.11158 -0.157543 -57.632801 13.238928 -9.215785 -3.009737 0.350549 2.038466 -1.000005 0.0 0.0 
0.0 0.0 0.0 0.0 -0.0 0.0 -0.990643 48.748798 6.19261 90.66465 -46.181404 91.470383 20.265192 0.615984 1.002401 -4.208645 0.048149 -0.061561 18.37018 -1.148869 -2.6582 15.46826 -3.030924 2.48614 -2.438547 -0.600663 -5.850333 -22.244181 -3.559896 -6.896376 7e-06 -1e-06 -0.0 -0.21989 -0.106156 0.013383 0.055473 -0.058734 0.044194 -0.021489 -0.149604 -0.004859 29.293207 -74.611504 -25.034454 73.287285 -2.476877 -15.539131 14.905749 -0.538502 0.031175 20.584463 60.452995 29.039474 17.636633 -26.322735 52.411201 -19.466665 -14.395597 29.410395 1e-06 -8.774822 -3e-06 16.555616 -18.103855 5.888714 -0.609777 -1.795654 -3.889328 -4.80709 -11.046814 -2.937851 4e-06 -20.976021 -1e-06 -5.01997 -25.033564 -4.031882 6e-06 -0.0 -0.0 -10.634535 -5.686974 -3.565588 10.573275 -17.922955 -3.113901 3e-06 -13.821214 1e-06 -0.501778 -31.181511 -4.027016 -11.531612 -60.084717 7.055571 -13.982717 -7.150199 -2.875043 13.772731 -8.401495 -3.218241 0.347734 -34.211559 0.771654 -0.963029 -17.733376 2.62102 0.0 0.0 0.0 -17.346424 -20.095224 -4.201782 21.757561 -1.638375 3.86643 1e-06 -6.338824 0.0 -1.697589 -22.591755 -6.194009 0.0 -4e-06 -2e-06 -146.23381 -70.921783 -28.551733 69.600082 -7.019954 -32.437145 15.385763 -0.788342 -0.129585 5.429256 70.027481 9.36557 22.182114 -20.375891 49.933315 -16.701813 -16.743526 28.476528 -2e-06 -12.6906 -2e-06 16.597765 -17.697849 2.480919 -0.105919 -1.513856 -4.275881 -5.039042 -5.612873 -2.953557 1e-06 -11.020525 -1e-06 -6.1113 -15.89533 -3.84047 1e-06 -1e-06 -0.0 -10.283369 -5.680289 -4.341839 11.028295 -11.302404 -2.372632 -1.38427 -14.238583 -6.32012 -0.625439 -26.924189 -3.827601 -4.478631 -49.654949 -3.523269 -13.708524 -7.363476 -3.720939 18.14115 -14.052739 -3.242675 5e-06 -18.787275 -1e-06 -0.429712 -8.456043 2.555504 0.0 -1e-06 1e-06 -15.923536 -20.094482 -5.473585 30.41921 -7.190823 1.735928 2e-06 -8.162929 0.0 -1.861904 -22.861473 -6.167943 1e-06 -2e-06 -0.0 128.553375 -1.36857 2.56783 111.656616 0.677874 0.338428 -52.604218 11.90023 -16.868753 -4.013323 1.248291 2.994112 -1.000001 -0.0 -0.0 -50.731739 -6.751667 5.627027 112.403442 -1.048688 -0.143669 -57.824757 13.320517 -9.395784 -3.148923 0.334376 2.046688 -1.000005 -0.0 0.0 
